# xmcd
#
# Track frame offsets:
#	150
#	15896
#	32190
#	46386
#	63154
#	79601
#	99586
#	116785
#	138868
#	156095
#	172145
#	191914
#	209490
#	226682
#	242836
#
# Disc length: 3464 seconds
#
# Revision: 1
# Processed by: cddbd v1.5.2PL0 Copyright (c) Steve Scherf et al.
# Submitted via: audiograbber 1.83.01
#
DISCID=c40d860f
DTITLE=Paul Overstreet - Somewhere In The Caribbean
DYEAR=2019
DGENRE=Country
TTITLE0=Some Beach
TTITLE1=Cracked A Little Conch Last Night
TTITLE2=Makin' Some Waves
TTITLE3=Bad On The Beach
TTITLE4=Saltwater Cowboys
TTITLE5=My Baby Goes Bananas (Over Coconut Trees)
TTITLE6=Somewhere In The Caribbean
TTITLE7=Cabo Coma
TTITLE8=Makes Me Want A Beach
TTITLE9=Bahama Blue
TTITLE10=Shady People
TTITLE11=Somewhere Down South
TTITLE12=Summertime
TTITLE13=Takin' It Easy
TTITLE14=Buffett Would Love It
EXTD=
EXTT0=
EXTT1=
EXTT2=
EXTT3=
EXTT4=
EXTT5=
EXTT6=
EXTT7=
EXTT8=
EXTT9=
EXTT10=
EXTT11=
EXTT12=
EXTT13=
EXTT14=
PLAYORDER=
